<svg width="24" height="23" viewBox="0 0 24 23" fill="none" xmlns="http://www.w3.org/2000/svg">
<path d="M1.89185 9.77027C1.06342 9.77027 0.391846 10.4418 0.391846 11.2703C0.391846 12.0987 1.06342 12.7703 1.89185 12.7703L1.89185 9.77027ZM23.3849 12.3309C23.9707 11.7451 23.9707 10.7954 23.3849 10.2096L13.839 0.663671C13.2532 0.0778838 12.3035 0.0778837 11.7177 0.66367C11.1319 1.24946 11.1319 2.1992 11.7177 2.78499L20.203 11.2703L11.7177 19.7556C11.1319 20.3413 11.1319 21.2911 11.7177 21.8769C12.3035 22.4627 13.2532 22.4627 13.839 21.8769L23.3849 12.3309ZM1.89185 12.7703L22.3243 12.7703L22.3243 9.77027L1.89185 9.77027L1.89185 12.7703Z" fill="black"/>
</svg>
