<svg width="24" height="24" viewBox="0 0 24 24" fill="none" xmlns="http://www.w3.org/2000/svg">
<path d="M2 10.5C1.17157 10.5 0.5 11.1716 0.5 12C0.5 12.8284 1.17157 13.5 2 13.5V10.5ZM23.4931 13.0607C24.0789 12.4749 24.0789 11.5251 23.4931 10.9393L13.9472 1.3934C13.3614 0.807612 12.4116 0.807612 11.8258 1.3934C11.24 1.97918 11.24 2.92893 11.8258 3.51472L20.3111 12L11.8258 20.4853C11.24 21.0711 11.24 22.0208 11.8258 22.6066C12.4116 23.1924 13.3614 23.1924 13.9472 22.6066L23.4931 13.0607ZM2 13.5H22.4324V10.5H2V13.5Z" fill="#001587"/>
</svg>
