<svg width="33" height="30" viewBox="0 0 33 30" fill="none" xmlns="http://www.w3.org/2000/svg">
<path d="M31 17C32.1046 17 33 16.1046 33 15C33 13.8954 32.1046 13 31 13L31 17ZM0.585787 13.5858C-0.195263 14.3668 -0.195263 15.6332 0.585787 16.4142L13.3137 29.1421C14.0948 29.9232 15.3611 29.9232 16.1421 29.1421C16.9232 28.3611 16.9232 27.0948 16.1421 26.3137L4.82843 15L16.1421 3.6863C16.9232 2.90525 16.9232 1.63892 16.1421 0.857868C15.3611 0.0768194 14.0948 0.0768194 13.3137 0.857868L0.585787 13.5858ZM31 13L2 13L2 17L31 17L31 13Z" fill="#EC666E"/>
</svg>
