<svg width="45" height="45" viewBox="0 0 45 45" fill="none" xmlns="http://www.w3.org/2000/svg">
<path d="M11.5185 33.3955C11.1565 33.0335 10.9755 32.5809 10.9755 32.0379C10.9755 31.4948 11.1565 31.0423 11.5185 30.6802L19.8002 22.3986L11.3828 13.9812C11.0207 13.6192 10.8171 13.144 10.7718 12.5557C10.8171 11.9674 11.0207 11.4922 11.3828 11.1301C11.7901 10.7229 12.2652 10.5192 12.8083 10.5192C13.3966 10.5645 13.8718 10.7681 14.2338 11.1301L22.6512 19.5475L30.254 11.9447C30.6161 11.5827 31.0686 11.4017 31.6117 11.4017C32.1547 11.4017 32.6073 11.5827 32.9693 11.9447C33.3314 12.3068 33.5124 12.7593 33.5124 13.3024C33.5576 13.8907 33.3992 14.3659 33.0372 14.7279L25.4344 22.3307L33.8518 30.7481C34.2138 31.1102 34.3949 31.5627 34.3949 32.1058C34.4401 32.6941 34.2591 33.1919 33.8518 33.5992C33.4898 33.9612 32.992 34.1422 32.3584 34.1422C31.8153 34.1422 31.3628 33.9612 31.0007 33.5992L22.5833 25.1818L14.3017 33.4634C13.9397 33.8254 13.4645 33.9838 12.8762 33.9386C12.3331 33.9386 11.8806 33.7576 11.5185 33.3955Z" fill="black"/>
</svg>
