<svg width="52" height="51" viewBox="0 0 52 51" fill="none" xmlns="http://www.w3.org/2000/svg">
<ellipse cx="23" cy="28" rx="21" ry="21" transform="rotate(180 23 28)" fill="#CFD6FF"/>
<path d="M11.9007 39.292C11.5387 38.9299 11.3577 38.4774 11.3577 37.9343C11.3577 37.3913 11.5387 36.9387 11.9007 36.5767L20.1824 28.2951L11.765 19.8777C11.4029 19.5156 11.1993 19.0404 11.154 18.4521C11.1993 17.8638 11.4029 17.3886 11.765 17.0266C12.1723 16.6193 12.6475 16.4157 13.1905 16.4157C13.7788 16.4609 14.254 16.6646 14.616 17.0266L23.0334 25.444L30.6362 17.8412C30.9983 17.4791 31.4508 17.2981 31.9939 17.2981C32.537 17.2981 32.9895 17.4791 33.3515 17.8412C33.7136 18.2032 33.8946 18.6558 33.8946 19.1988C33.9399 19.7871 33.7815 20.2623 33.4194 20.6244L25.8166 28.2272L34.234 36.6446C34.596 37.0066 34.7771 37.4592 34.7771 38.0022C34.8223 38.5905 34.6413 39.0883 34.234 39.4956C33.872 39.8577 33.3742 40.0387 32.7406 40.0387C32.1975 40.0387 31.745 39.8577 31.383 39.4956L22.9656 31.0782L14.6839 39.3599C14.3219 39.7219 13.8467 39.8803 13.2584 39.835C12.7153 39.835 12.2628 39.654 11.9007 39.292Z" fill="#5668C8"/>
</svg>
