<svg width="57" height="57" viewBox="0 0 57 57" fill="none" xmlns="http://www.w3.org/2000/svg">
<circle cx="28.5" cy="28.5" r="28.5" fill="#CFD6FF"/>
<path d="M12.872 28.4392C12.872 27.9272 13.064 27.4792 13.448 27.0952C13.832 26.7112 14.28 26.5192 14.792 26.5192L26.504 26.5192L26.504 14.6152C26.504 14.1032 26.696 13.6232 27.08 13.1752C27.528 12.7912 28.008 12.5992 28.52 12.5992C29.096 12.5992 29.576 12.7912 29.96 13.1752C30.344 13.6232 30.536 14.1032 30.536 14.6152L30.536 26.5192L41.288 26.5192C41.8 26.5192 42.248 26.7112 42.632 27.0952C43.016 27.4792 43.208 27.9272 43.208 28.4392C43.208 28.9512 43.016 29.3992 42.632 29.7832C42.248 30.2312 41.8 30.4552 41.288 30.4552L30.536 30.4552L30.536 42.3592C30.536 42.8712 30.344 43.3192 29.96 43.7032C29.576 44.1512 29.096 44.3752 28.52 44.3752C28.008 44.3752 27.528 44.1512 27.08 43.7032C26.696 43.3192 26.504 42.8712 26.504 42.3592L26.504 30.4552L14.792 30.4552C14.28 30.4552 13.832 30.2312 13.448 29.7832C13.064 29.3992 12.872 28.9512 12.872 28.4392Z" fill="#5668C8"/>
</svg>
